<svg width="88" height="34" viewBox="0 0 88 34" fill="none" xmlns="http://www.w3.org/2000/svg">
<path d="M21.7539 28.2461C21.819 28.3372 21.8581 28.4023 21.8711 28.4414C21.8841 28.4805 21.8776 28.513 21.8516 28.5391C21.8385 28.5521 21.8125 28.5651 21.7734 28.5781C21.7344 28.5911 21.7018 28.6107 21.6758 28.6367C21.6107 28.6758 21.5911 28.7148 21.6172 28.7539C21.6562 28.793 21.6367 28.8646 21.5586 28.9688C21.5065 29.0078 21.5 29.0534 21.5391 29.1055C21.5781 29.1445 21.5846 29.1771 21.5586 29.2031C21.3633 29.5026 21.2135 29.6914 21.1094 29.7695C21.0052 29.7695 20.9141 29.7826 20.8359 29.8086C20.7969 29.8216 20.7708 29.8346 20.7578 29.8477C20.7188 29.8867 20.6797 29.9388 20.6406 30.0039C20.6016 30.056 20.569 30.1081 20.543 30.1602C20.5169 30.1992 20.4844 30.2318 20.4453 30.2578C20.4193 30.2708 20.3867 30.2513 20.3477 30.1992C20.3086 30.1341 20.2565 30.1016 20.1914 30.1016C20.1393 30.1016 20.1003 30.1211 20.0742 30.1602C20.0482 30.1862 20.0156 30.2188 19.9766 30.2578C19.9375 30.2839 19.9115 30.3164 19.8984 30.3555C19.8984 30.3815 19.918 30.4141 19.957 30.4531C19.9961 30.4792 20.0872 30.5117 20.2305 30.5508C20.556 30.6419 20.6146 30.7331 20.4062 30.8242C20.2109 30.9023 19.8333 30.9219 19.2734 30.8828C18.7396 30.8438 18.2318 30.8112 17.75 30.7852C17.2682 30.7461 16.7865 30.7201 16.3047 30.707C15.8359 30.681 15.3542 30.6615 14.8594 30.6484C14.3646 30.6354 13.8372 30.6354 13.2773 30.6484C12.5352 30.6615 11.7474 30.694 10.9141 30.7461C10.0938 30.7982 9.27344 30.8568 8.45312 30.9219C7.64583 30.987 6.86458 31.0521 6.10938 31.1172C5.36719 31.1953 4.69661 31.2669 4.09766 31.332C3.4987 31.3971 2.99089 31.4557 2.57422 31.5078C2.17057 31.5729 1.91016 31.6185 1.79297 31.6445C1.67578 31.6836 1.59115 31.6966 1.53906 31.6836C1.5 31.6836 1.46745 31.651 1.44141 31.5859C1.42839 31.5208 1.41536 31.4232 1.40234 31.293C1.38932 31.1628 1.35677 30.987 1.30469 30.7656C1.26562 30.6354 1.20703 30.5052 1.12891 30.375C1.0638 30.2318 1.01823 30.1211 0.992188 30.043C0.953125 29.8346 0.940104 29.6914 0.953125 29.6133C0.966146 29.5221 1.04427 29.4635 1.1875 29.4375L3.58984 28.793C3.44661 27.8945 3.34245 26.8464 3.27734 25.6484C3.22526 24.4375 3.19922 23.1289 3.19922 21.7227C3.19922 20.5117 3.22526 19.2747 3.27734 18.0117C3.32943 16.7357 3.40755 15.4531 3.51172 14.1641C3.77214 10.9089 3.98698 8.41536 4.15625 6.68359C4.33854 4.9388 4.50781 3.92318 4.66406 3.63672C4.70312 3.57161 4.73568 3.51302 4.76172 3.46094C4.78776 3.39583 4.82682 3.36328 4.87891 3.36328C4.95703 3.32422 5.01562 3.33073 5.05469 3.38281C5.09375 3.4349 5.16536 3.44141 5.26953 3.40234C5.29557 3.40234 5.3151 3.38932 5.32812 3.36328C5.35417 3.32422 5.38672 3.28516 5.42578 3.24609L5.46484 3.22656C5.49089 3.20052 5.54297 3.16797 5.62109 3.12891C5.81641 3.19401 5.95964 3.2526 6.05078 3.30469C6.10286 3.33073 6.13542 3.35026 6.14844 3.36328C6.22656 3.40234 6.30469 3.47396 6.38281 3.57812C6.46094 3.66927 6.53255 3.67578 6.59766 3.59766L6.63672 3.55859C6.66276 3.53255 6.70182 3.51953 6.75391 3.51953C6.79297 3.54557 6.83203 3.57161 6.87109 3.59766C6.91016 3.6237 6.94271 3.64974 6.96875 3.67578C7.00781 3.71484 7.04036 3.74089 7.06641 3.75391C7.13151 3.79297 7.1901 3.84505 7.24219 3.91016C7.29427 3.97526 7.34635 4.09896 7.39844 4.28125C7.45052 4.51562 7.45703 4.9974 7.41797 5.72656C7.39193 6.45573 7.33984 7.35417 7.26172 8.42188C7.19661 9.48958 7.125 10.6875 7.04688 12.0156C6.96875 13.3438 6.92318 14.724 6.91016 16.1562C6.89714 16.8203 6.8776 17.5365 6.85156 18.3047C6.82552 19.0599 6.79948 19.8411 6.77344 20.6484C6.7474 21.4427 6.72135 22.2305 6.69531 23.0117C6.68229 23.793 6.67578 24.5352 6.67578 25.2383C6.67578 25.7982 6.67578 26.3255 6.67578 26.8203C6.6888 27.3021 6.72786 27.7188 6.79297 28.0703C8.21224 27.7708 9.80078 27.5039 11.5586 27.2695C13.3294 27.0352 15.2174 26.918 17.2227 26.918C17.9518 26.918 18.5573 26.957 19.0391 27.0352C19.5339 27.1003 19.944 27.1979 20.2695 27.3281C20.3477 27.3542 20.4583 27.4062 20.6016 27.4844C20.7448 27.5495 20.8945 27.6276 21.0508 27.7188C21.207 27.8099 21.3503 27.901 21.4805 27.9922C21.6107 28.0833 21.7018 28.168 21.7539 28.2461ZM47.6719 14.2031C47.6849 14.3464 47.6914 14.4831 47.6914 14.6133C47.6914 14.7435 47.6914 14.8802 47.6914 15.0234C47.6914 16.4297 47.4961 17.875 47.1055 19.3594C46.7279 20.8438 46.1875 22.2565 45.4844 23.5977C44.7812 24.9258 43.9284 26.1367 42.9258 27.2305C41.9232 28.3112 40.8034 29.1576 39.5664 29.7695C38.8372 30.1211 38.0495 30.3815 37.2031 30.5508C36.3568 30.7201 35.5039 30.8047 34.6445 30.8047C34.0195 30.8047 33.401 30.7591 32.7891 30.668C32.1901 30.5768 31.6172 30.4596 31.0703 30.3164C29.8464 29.9648 28.7461 29.4245 27.7695 28.6953C26.806 27.9531 25.9792 27.1003 25.2891 26.1367C24.599 25.1732 24.0521 24.138 23.6484 23.0312C23.2578 21.9115 23.0299 20.8047 22.9648 19.7109C22.9518 19.5547 22.9388 19.3984 22.9258 19.2422C22.9258 19.0859 22.9258 18.9297 22.9258 18.7734C22.9258 17.5625 23.0755 16.3581 23.375 15.1602C23.6745 13.9492 24.0781 12.7969 24.5859 11.7031C25.1068 10.5964 25.7057 9.5612 26.3828 8.59766C27.0729 7.63411 27.8021 6.78776 28.5703 6.05859C29.3516 5.32943 30.1458 4.73698 30.9531 4.28125C31.7734 3.8125 32.5742 3.51953 33.3555 3.40234C33.4596 3.38932 33.5247 3.38281 33.5508 3.38281C33.5898 3.36979 33.6159 3.36328 33.6289 3.36328C33.6419 3.36328 33.6549 3.36979 33.668 3.38281C33.681 3.38281 33.7135 3.3763 33.7656 3.36328C34.0651 3.33724 34.2799 3.33073 34.4102 3.34375C34.5404 3.35677 34.6185 3.3763 34.6445 3.40234C34.6706 3.44141 34.6641 3.46745 34.625 3.48047C34.599 3.49349 34.5534 3.51953 34.4883 3.55859C34.4622 3.55859 34.4297 3.5651 34.3906 3.57812C34.3646 3.59115 34.3646 3.61068 34.3906 3.63672C34.4167 3.70182 34.3906 3.76042 34.3125 3.8125C34.2344 3.86458 34.1823 3.90365 34.1562 3.92969C34.1302 3.95573 34.1237 3.97526 34.1367 3.98828C34.1497 4.0013 34.1562 4.00781 34.1562 4.00781C34.1693 4.00781 34.1693 4.01432 34.1562 4.02734C34.1562 4.04036 34.1302 4.0599 34.0781 4.08594C33.9219 4.1901 33.7526 4.28776 33.5703 4.37891C33.401 4.45703 33.2253 4.55469 33.043 4.67188C32.1055 5.34896 31.2786 6.22135 30.5625 7.28906C29.8464 8.35677 29.2474 9.53516 28.7656 10.8242C28.2839 12.1133 27.9193 13.474 27.6719 14.9062C27.4245 16.3255 27.3008 17.7318 27.3008 19.125C27.3008 19.3073 27.3008 19.4896 27.3008 19.6719C27.3008 19.8411 27.3073 20.0169 27.3203 20.1992C27.3464 20.7591 27.4375 21.3711 27.5938 22.0352C27.75 22.6992 27.9583 23.3633 28.2188 24.0273C28.4922 24.6784 28.8177 25.3099 29.1953 25.9219C29.5859 26.5339 30.0286 27.0807 30.5234 27.5625C31.0182 28.0312 31.5716 28.4154 32.1836 28.7148C32.7956 29.0013 33.4661 29.151 34.1953 29.1641C35.2891 29.2031 36.2721 29.0273 37.1445 28.6367C38.0169 28.2461 38.7852 27.7253 39.4492 27.0742C40.1263 26.4102 40.7057 25.6549 41.1875 24.8086C41.6693 23.9492 42.0664 23.0703 42.3789 22.1719C42.7044 21.2604 42.9583 20.3685 43.1406 19.4961C43.3229 18.6107 43.4466 17.8164 43.5117 17.1133C43.5378 16.8398 43.5573 16.5664 43.5703 16.293C43.5833 16.0065 43.5898 15.7331 43.5898 15.4727C43.5898 13.806 43.3685 12.3216 42.9258 11.0195C42.4961 9.71745 41.9167 8.61719 41.1875 7.71875C40.4714 6.82031 39.6445 6.13021 38.707 5.64844C37.7695 5.15365 36.7995 4.88672 35.7969 4.84766C35.6927 4.83464 35.569 4.83464 35.4258 4.84766C35.2826 4.84766 35.1328 4.84766 34.9766 4.84766C34.8333 4.84766 34.7031 4.85417 34.5859 4.86719C34.4818 4.86719 34.4167 4.86068 34.3906 4.84766C34.2214 4.76953 34.1172 4.71094 34.0781 4.67188L34.0391 4.63281C34.0391 4.52865 34.0651 4.45052 34.1172 4.39844L34.3125 4.30078C34.3776 4.27474 34.4362 4.2487 34.4883 4.22266C34.5534 4.18359 34.6055 4.15104 34.6445 4.125C34.6706 4.08594 34.6641 4.0599 34.625 4.04688C34.5859 4.02083 34.5664 3.96224 34.5664 3.87109C34.5404 3.80599 34.5599 3.7474 34.625 3.69531C34.6901 3.63021 34.7357 3.59766 34.7617 3.59766C34.8789 3.55859 34.957 3.53906 34.9961 3.53906C35.0482 3.52604 35.1133 3.51953 35.1914 3.51953C35.3216 3.50651 35.4258 3.49349 35.5039 3.48047C35.5951 3.45443 35.6732 3.42839 35.7383 3.40234C35.8164 3.3763 35.901 3.35677 35.9922 3.34375C36.0833 3.31771 36.207 3.29818 36.3633 3.28516C36.4805 3.25911 36.6107 3.24609 36.7539 3.24609C36.8971 3.24609 37.112 3.23307 37.3984 3.20703C38.5182 3.18099 39.5404 3.3112 40.4648 3.59766C41.4023 3.87109 42.2422 4.26823 42.9844 4.78906C43.7396 5.3099 44.3971 5.92839 44.957 6.64453C45.5169 7.34766 45.9857 8.11589 46.3633 8.94922C46.7539 9.76953 47.0534 10.6289 47.2617 11.5273C47.4831 12.4258 47.6198 13.3177 47.6719 14.2031ZM62.3789 2.75781C62.444 3.21354 62.5156 3.83854 62.5938 4.63281C62.6719 5.42708 62.7435 6.33203 62.8086 7.34766C62.8867 8.36328 62.9453 9.47005 62.9844 10.668C63.0365 11.8659 63.0625 13.0964 63.0625 14.3594C63.0625 15.7656 63.0234 17.1849 62.9453 18.6172C62.8802 20.0365 62.763 21.4102 62.5938 22.7383C62.4375 24.0534 62.2161 25.2904 61.9297 26.4492C61.6432 27.5951 61.2852 28.5911 60.8555 29.4375C60.6341 29.8672 60.3216 30.349 59.918 30.8828C59.5143 31.4167 59.0195 31.8984 58.4336 32.3281C57.8477 32.7578 57.1706 33.0898 56.4023 33.3242C55.6341 33.5586 54.7747 33.5977 53.8242 33.4414C53.1471 33.3242 52.5221 33.0703 51.9492 32.6797C51.3893 32.2891 50.901 31.8073 50.4844 31.2344C50.0677 30.6745 49.7422 30.056 49.5078 29.3789C49.2734 28.6888 49.1497 28.0052 49.1367 27.3281C49.1237 26.5599 49.2018 25.8503 49.3711 25.1992C49.5404 24.5352 49.7422 23.9492 49.9766 23.4414C50.224 22.9336 50.4844 22.5104 50.7578 22.1719C51.0312 21.8333 51.2656 21.5924 51.4609 21.4492C51.6953 21.2799 51.8581 21.1823 51.9492 21.1562C52.0534 21.1302 52.1576 21.1042 52.2617 21.0781C52.3919 21.0521 52.4831 21.0456 52.5352 21.0586C52.6003 21.0586 52.6393 21.0716 52.6523 21.0977C52.6784 21.1107 52.6979 21.1367 52.7109 21.1758C52.724 21.2018 52.7565 21.2214 52.8086 21.2344C52.8737 21.2604 52.9453 21.2734 53.0234 21.2734C53.1016 21.2734 53.1667 21.2734 53.2188 21.2734C53.2839 21.2734 53.3229 21.2865 53.3359 21.3125C53.362 21.3255 53.349 21.3711 53.2969 21.4492C53.2708 21.4883 53.2708 21.5143 53.2969 21.5273C53.3359 21.5404 53.3815 21.5534 53.4336 21.5664C53.4987 21.5664 53.5508 21.5794 53.5898 21.6055C53.6419 21.6315 53.6615 21.6706 53.6484 21.7227C53.6224 21.7617 53.6289 21.8203 53.668 21.8984C53.707 21.9635 53.7591 21.9831 53.8242 21.957C53.9935 21.918 54.0716 21.9115 54.0586 21.9375C54.0456 21.9505 53.9805 22.0091 53.8633 22.1133C53.7461 22.2044 53.6029 22.3346 53.4336 22.5039C53.2643 22.6732 53.1146 22.8815 52.9844 23.1289C52.6458 23.793 52.3919 24.5026 52.2227 25.2578C52.0534 26.013 51.9688 26.7552 51.9688 27.4844C51.9688 27.9661 52.0013 28.4219 52.0664 28.8516C52.1445 29.2682 52.2552 29.6393 52.3984 29.9648C52.5417 30.2904 52.7174 30.5573 52.9258 30.7656C53.1471 30.9609 53.401 31.0781 53.6875 31.1172C54.3516 31.2083 54.9505 31.0391 55.4844 30.6094C56.0182 30.1667 56.4935 29.5677 56.9102 28.8125C57.3268 28.0573 57.6914 27.1914 58.0039 26.2148C58.3164 25.2383 58.5768 24.2617 58.7852 23.2852C58.9935 22.2956 59.1497 21.3516 59.2539 20.4531C59.3711 19.5417 59.4492 18.7799 59.4883 18.168C59.5404 17.3086 59.5729 16.4492 59.5859 15.5898C59.612 14.7305 59.625 13.8776 59.625 13.0312C59.625 11.5208 59.599 10.082 59.5469 8.71484C59.4948 7.33464 59.4297 6.10417 59.3516 5.02344C59.2865 3.94271 59.2148 3.05729 59.1367 2.36719C59.0586 1.66406 58.9935 1.23438 58.9414 1.07812C58.9154 1.01302 58.9089 0.960938 58.9219 0.921875C58.9479 0.882812 58.987 0.856771 59.0391 0.84375C59.1042 0.817708 59.1693 0.811198 59.2344 0.824219C59.3125 0.83724 59.3841 0.856771 59.4492 0.882812C59.5404 0.908854 59.5924 0.882812 59.6055 0.804688C59.6185 0.713542 59.6641 0.648438 59.7422 0.609375C59.8073 0.583333 59.8724 0.596354 59.9375 0.648438C60.0026 0.700521 60.0547 0.726562 60.0938 0.726562C60.1589 0.726562 60.2109 0.700521 60.25 0.648438C60.3021 0.596354 60.3607 0.583333 60.4258 0.609375C60.4648 0.635417 60.5039 0.661458 60.543 0.6875C60.5951 0.713542 60.6732 0.713542 60.7773 0.6875C60.8164 0.674479 60.849 0.648438 60.875 0.609375C60.901 0.557292 60.9271 0.511719 60.9531 0.472656C60.9922 0.420573 61.0247 0.388021 61.0508 0.375C61.0898 0.361979 61.1419 0.38151 61.207 0.433594C61.2982 0.53776 61.3633 0.596354 61.4023 0.609375C61.4544 0.609375 61.487 0.596354 61.5 0.570312C61.526 0.53125 61.5456 0.492188 61.5586 0.453125C61.5716 0.401042 61.5911 0.38151 61.6172 0.394531C61.7865 0.472656 61.9036 0.53776 61.9688 0.589844C62.0469 0.641927 62.099 0.739583 62.125 0.882812C62.1641 1.02604 62.1966 1.24089 62.2227 1.52734C62.2487 1.8138 62.3008 2.22396 62.3789 2.75781ZM87.1836 30.4336C87.1836 30.5378 87.1185 30.5964 86.9883 30.6094C86.8581 30.6094 86.7214 30.6094 86.5781 30.6094C86.513 30.6224 86.4479 30.6354 86.3828 30.6484C86.3177 30.6745 86.2461 30.7005 86.168 30.7266C86.1029 30.7396 86.0378 30.7786 85.9727 30.8438C85.9987 30.974 86.0052 31.0716 85.9922 31.1367C85.9922 31.2148 85.9922 31.2734 85.9922 31.3125L85.9727 31.3906C85.9336 31.4427 85.8555 31.4818 85.7383 31.5078C85.6211 31.5469 85.4974 31.5664 85.3672 31.5664C85.3411 31.5664 85.3021 31.5599 85.25 31.5469C85.1589 31.5208 85.0677 31.4557 84.9766 31.3516C84.7552 31.2865 84.4948 31.2214 84.1953 31.1562C84.0391 31.1172 83.8698 31.0781 83.6875 31.0391C83.5443 31 83.4206 30.8958 83.3164 30.7266C83.2122 30.5573 83.1146 30.362 83.0234 30.1406C82.9453 29.9062 82.8672 29.6719 82.7891 29.4375C82.724 29.1901 82.6654 28.9753 82.6133 28.793L80.6992 22.7578C80.4128 22.7578 80.0482 22.7643 79.6055 22.7773C79.1758 22.7773 78.7135 22.7839 78.2188 22.7969C77.724 22.7969 77.2227 22.8099 76.7148 22.8359C76.207 22.849 75.7448 22.862 75.3281 22.875L71.4219 23.0703L69.1367 29.0469C69.0977 29.112 69.0391 29.2422 68.9609 29.4375C68.8958 29.6328 68.8242 29.8411 68.7461 30.0625C68.668 30.2708 68.5964 30.4727 68.5312 30.668C68.4661 30.8503 68.4271 30.9609 68.4141 31C68.388 31.1042 68.3099 31.1693 68.1797 31.1953C68.0495 31.2214 67.9388 31.2474 67.8477 31.2734C67.7695 31.2995 67.7044 31.3711 67.6523 31.4883C67.6003 31.6055 67.5221 31.6836 67.418 31.7227C67.3138 31.7878 67.1836 31.7943 67.0273 31.7422C66.8711 31.6901 66.7344 31.6055 66.6172 31.4883C66.513 31.3581 66.474 31.1953 66.5 31C66.526 30.7917 66.5391 30.5768 66.5391 30.3555C66.5391 30.1341 66.5326 29.9258 66.5195 29.7305C66.5195 29.5352 66.5521 29.3464 66.6172 29.1641C66.6432 29.0859 66.7214 28.8451 66.8516 28.4414C66.9948 28.0247 67.1706 27.5299 67.3789 26.957C67.5872 26.3711 67.8151 25.7396 68.0625 25.0625C68.3099 24.3724 68.5638 23.7083 68.8242 23.0703C68.5898 23.0703 68.4271 23.0052 68.3359 22.875C68.2708 22.7708 68.1927 22.7122 68.1016 22.6992C68.0104 22.6732 67.9128 22.6406 67.8086 22.6016C67.7044 22.5755 67.6328 22.5169 67.5938 22.4258C67.5547 22.3346 67.5482 22.2565 67.5742 22.1914C67.6003 22.1133 67.5807 22.0482 67.5156 21.9961C67.4505 21.944 67.418 21.8268 67.418 21.6445C67.418 21.5664 67.4766 21.4948 67.5938 21.4297C67.724 21.3516 67.8802 21.2865 68.0625 21.2344C68.2448 21.1823 68.4466 21.1367 68.668 21.0977C68.9023 21.0586 69.1237 21.026 69.332 21C69.3711 21 69.4167 21 69.4688 21C69.5339 21 69.599 20.987 69.6641 20.9609C69.9505 20.2708 70.276 19.5286 70.6406 18.7344C71.0052 17.9271 71.3763 17.1068 71.7539 16.2734C72.1445 15.4401 72.5352 14.6068 72.9258 13.7734C73.3164 12.9401 73.6875 12.1589 74.0391 11.4297C74.3906 10.6875 74.7096 10.0104 74.9961 9.39844C75.2956 8.78646 75.543 8.27865 75.7383 7.875C75.582 7.39323 75.4388 6.95052 75.3086 6.54688C75.1914 6.14323 75.0872 5.79167 74.9961 5.49219C74.9049 5.19271 74.8333 4.95833 74.7812 4.78906C74.7292 4.60677 74.7031 4.5026 74.7031 4.47656C74.6901 4.45052 74.6901 4.42448 74.7031 4.39844C74.7292 4.33333 74.7943 4.29427 74.8984 4.28125C74.7943 4.08594 74.7422 3.94271 74.7422 3.85156C74.7422 3.79948 74.7552 3.76693 74.7812 3.75391C74.8073 3.72786 74.8724 3.70182 74.9766 3.67578C75.0807 3.64974 75.1914 3.63021 75.3086 3.61719C75.4258 3.59115 75.5365 3.57812 75.6406 3.57812C75.7448 3.5651 75.8164 3.55859 75.8555 3.55859C75.8685 3.55859 75.901 3.5651 75.9531 3.57812C76.0312 3.60417 76.1419 3.66276 76.2852 3.75391C76.2982 3.6888 76.3112 3.64323 76.3242 3.61719C76.3503 3.59115 76.3763 3.5651 76.4023 3.53906L76.4609 3.48047C76.5391 3.44141 76.6237 3.4349 76.7148 3.46094C76.806 3.47396 76.8906 3.48047 76.9688 3.48047C77.0469 3.48047 77.099 3.44792 77.125 3.38281C77.1641 3.31771 77.2487 3.28516 77.3789 3.28516C77.5482 3.28516 77.6914 3.46745 77.8086 3.83203C77.8216 3.89714 77.9128 4.14453 78.082 4.57422C78.2513 4.99089 78.4661 5.54427 78.7266 6.23438C78.987 6.91146 79.2865 7.69922 79.625 8.59766C79.9766 9.49609 80.3411 10.4531 80.7188 11.4688C81.0964 12.4714 81.474 13.513 81.8516 14.5938C82.2422 15.6615 82.6133 16.7161 82.9648 17.7578C83.694 19.8802 84.306 21.6706 84.8008 23.1289C85.2956 24.5872 85.6927 25.7786 85.9922 26.7031C86.3047 27.6276 86.5326 28.3177 86.6758 28.7734C86.832 29.2292 86.9297 29.5026 86.9688 29.5938C87.0339 29.8021 87.0859 29.9714 87.125 30.1016C87.1641 30.2188 87.1836 30.3294 87.1836 30.4336ZM78.7656 17.0742C78.4271 16.1107 78.056 15.0299 77.6523 13.832C77.2617 12.6341 76.8776 11.4492 76.5 10.2773C76.2786 10.8503 76.0117 11.5404 75.6992 12.3477C75.3867 13.1549 75.0547 13.9883 74.7031 14.8477C74.3646 15.707 74.0326 16.5469 73.707 17.3672C73.3815 18.1875 73.0951 18.8906 72.8477 19.4766L72.3008 20.7656L75.8164 20.5508C76.1159 20.5508 76.474 20.5443 76.8906 20.5312C77.5938 20.5182 78.6094 20.4987 79.9375 20.4727L78.7656 17.0742Z" fill="white"/>
</svg>
